<svg height='451' width='451'  fill="#000000" xmlns="http://www.w3.org/2000/svg" xmlns:xlink="http://www.w3.org/1999/xlink" version="1.1" x="0px" y="0px" viewBox="0 0 52 52" style="enable-background:new 0 0 52 52;" xml:space="preserve"><g><path d="M2.1650085,48.8370667c0,0.5499878,0.4500122,1,1,1h45.6699829c0.5599976,0,1-0.4500122,1-1V18.313324H2.1650085   V48.8370667z M39.1152039,21.2140808h5.0518799v5.0344849h-5.0518799V21.2140808z M39.1152039,30.5587463h5.0518799v5.0344849   h-5.0518799V30.5587463z M28.6889343,21.2140808h5.0518799v5.0344849h-5.0518799V21.2140808z M28.6889343,30.5587463h5.0518799   v5.0344849h-5.0518799V30.5587463z M28.6889343,39.9033508h5.0518799v5.0344849h-5.0518799V39.9033508z M18.2627258,21.2140808   h5.0518799v5.0344849h-5.0518799V21.2140808z M18.2627258,30.5587463h5.0518799v5.0344849h-5.0518799V30.5587463z    M18.2627258,39.9033508h5.0518799v5.0344849h-5.0518799V39.9033508z M7.8364563,30.5587463h5.0518799v5.0344849H7.8364563   V30.5587463z M7.8364563,39.9033508h5.0518799v5.0344849H7.8364563V39.9033508z"></path><path d="M48.8349915,7.0470886h-6.335083v6.1470947c0,0.5522461-0.4477539,1-1,1s-1-0.4477539-1-1V7.0470886h-3.359375v6.1470947   c0,0.5522461-0.4477539,1-1,1s-1-0.4477539-1-1V7.0470886H16.8631897v6.1470947c0,0.5522461-0.4477539,1-1,1s-1-0.4477539-1-1   V7.0470886h-3.359375v6.1470947c0,0.5522461-0.4477539,1-1,1s-1-0.4477539-1-1V7.0470886H3.1650085c-0.5499878,0-1,0.4399414-1,1   v8.2662354h47.6699829V8.0470886C49.8349915,7.48703,49.394989,7.0470886,48.8349915,7.0470886z"></path><path d="M11.5038147,3.1629333c0-0.5522461-0.4477539-1-1-1s-1,0.4477539-1,1v3.8841553h2V3.1629333z"></path><path d="M16.8631897,3.1629333c0-0.5522461-0.4477539-1-1-1s-1,0.4477539-1,1v3.8841553h2V3.1629333z"></path><path d="M37.1405334,3.1629333c0-0.5522461-0.4477539-1-1-1s-1,0.4477539-1,1v3.8841553h2V3.1629333z"></path><path d="M42.4999084,3.1629333c0-0.5522461-0.4477539-1-1-1s-1,0.4477539-1,1v3.8841553h2V3.1629333z"></path></g></svg>